<svg width="157" height="23" viewBox="0 0 157 23" fill="none" xmlns="http://www.w3.org/2000/svg">
<path id="&#208;&#155;&#208;&#190;&#208;&#179;&#208;&#190;&#209;&#130;&#208;&#184;&#208;&#191;" fill-rule="evenodd" clip-rule="evenodd" d="M86.093 10.6801C86.093 10.6801 84.5655 9.7351 83.621 9.36944C83.621 9.36944 80.6973 8.01368 80.1173 7.36865C80.1173 7.36865 78.9778 6.29423 79.645 5.0463C79.645 5.0463 79.9243 4.22971 81.1284 4.22971C81.1284 4.22971 82.6961 4.31598 82.6961 5.60508V7.42354H88.3142L88.3044 4.74535C88.3044 4.74535 88.7365 0.359476 81.6869 0.166356C81.6869 0.166356 76.1423 -0.198322 74.5521 2.78964C74.5521 2.78964 73.928 3.45625 73.928 5.77761V7.45491C73.928 7.45491 73.8643 9.39003 74.8519 10.637C74.8519 10.637 75.4104 11.4545 76.786 12.3564C76.786 12.3564 79.5794 13.8612 81.2558 14.7229C81.2558 14.7229 82.9479 15.6895 82.7255 17.2276C82.7255 17.2276 82.5873 18.8068 80.953 18.7421C80.953 18.7421 79.4589 18.6755 79.4589 17.1266V15.3091H73.4724V17.9491C73.4724 17.9491 73.3048 22.9976 80.9971 22.9976C80.9971 22.9976 88.3475 23.1466 88.6904 17.8167V15.6669C88.6894 15.6669 88.95 12.4005 86.093 10.6801ZM57.3304 0.794729L55.4492 12.5897H55.0093L53.2124 0.900604H43.828L43.3577 22.2604H48.9141L48.9807 6.1668H49.4177L52.3629 22.2575H58.2083L61.1173 6.17267H61.5043L61.6385 22.2604H67.2243L66.6227 0.794729H57.3304ZM24.2549 0.88394L20.5581 22.2359H26.5397L28.7295 5.68056H29.2214L31.4102 22.2359H37.3908L33.6951 0.88394H24.2549ZM149.767 10.386V13.5357H151.302V16.9168C151.302 18.5696 149.89 18.6 149.89 18.6C148.173 18.6 148.238 17.0295 148.238 17.0295V5.33451C148.238 4.12972 149.761 4.06502 149.761 4.06502C151.223 4.06502 151.233 5.50215 151.233 5.50215V7.28041H156.865C157.049 3.80916 156.357 2.96904 156.357 2.96904C154.96 -0.169887 149.675 0.00166566 149.675 0.00166566C141.554 0.00166566 142.455 6.2364 142.455 6.2364V17.5442C142.63 23.3917 150.632 22.7976 150.768 22.7927C154.327 22.3987 155.402 21.2664 155.402 21.2664C156.392 20.5312 156.646 19.5126 156.646 19.5126C156.929 18.9196 157 17.0295 157 17.0295V10.386H149.767ZM131.099 13.8612H130.854L125.139 0.800608H118.301V22.2624H123.867L123.534 9.20378H123.782L129.703 22.2624H136.333V0.798648H130.698L131.099 13.8612ZM104.717 16.9148C104.717 16.9148 104.797 18.6764 103.165 18.6764C103.165 18.6764 101.448 18.7686 101.448 16.959L101.431 0.813352H95.3265V16.8305C95.3265 16.8305 94.7004 22.8927 103.251 22.8927C103.251 22.8927 110.682 22.981 110.682 17.1089V0.814332H104.717V16.9148ZM12.618 10.6801C12.618 10.6801 11.0924 9.7351 10.1469 9.37043C10.1469 9.37043 7.22523 8.01565 6.64519 7.36962C6.64519 7.36962 5.5057 6.29325 6.17392 5.04826C6.17392 5.04826 6.45217 4.23167 7.65535 4.23167C7.65535 4.23167 9.22399 4.31696 9.22399 5.60606V7.42452H14.844L14.8333 4.74535C14.8333 4.74535 15.2624 0.359475 8.21579 0.167336C8.21579 0.167336 7.68474 0.133022 6.90581 0.172234C6.90581 0.172234 2.63689 0.401626 1.11039 2.74455C1.10157 2.7622 1.08883 2.77495 1.08002 2.79063C1.08002 2.79063 0.456873 3.45625 0.456873 5.77859V7.45589C0.456873 7.45589 0.392206 9.39101 1.38081 10.638C1.38081 10.638 1.93929 11.4555 3.3149 12.3574C3.3149 12.3574 6.10729 13.8622 7.7837 14.7239C7.7837 14.7239 9.47775 15.6885 9.25338 17.2285C9.25338 17.2285 9.11523 18.8078 7.48193 18.7431C7.48193 18.7431 5.98776 18.6764 5.98776 17.1276V15.3091H0.000291937V17.951C0.000291937 17.951 -0.167251 22.9996 7.52504 22.9996C7.52504 22.9996 14.8734 23.1486 15.2193 17.8187V15.6708C15.2193 15.6689 15.476 12.4005 12.618 10.6801Z" fill="black"/>
</svg>
